<?xml version="1.0" standalone="no"?>
<!DOCTYPE svg PUBLIC "-//W3C//DTD SVG 20010904//EN"
 "http://www.w3.org/TR/2001/REC-SVG-20010904/DTD/svg10.dtd">
<svg version="1.0" xmlns="http://www.w3.org/2000/svg"
 width="409.000000pt" height="202.000000pt" viewBox="0 0 409.000000 202.000000"
 preserveAspectRatio="xMidYMid meet">

<g transform="translate(0.000000,202.000000) scale(0.100000,-0.100000)"
fill="#000000" stroke="none">
<path d="M435 1990 c-172 -26 -291 -115 -345 -257 -52 -138 -54 -171 -55 -718
0 -453 2 -519 18 -595 36 -171 116 -293 228 -349 81 -40 155 -54 268 -49 79 3
105 9 147 31 57 29 124 99 151 158 10 21 21 39 24 39 3 0 9 -30 13 -68 4 -37
9 -84 13 -104 l6 -38 58 0 c37 0 59 -4 59 -11 0 -8 40 -10 138 -7 156 5 221
24 278 79 l33 32 148 -26 c254 -46 420 -58 828 -64 557 -7 682 6 896 96 91 38
245 131 347 209 96 73 251 225 331 325 l62 77 -33 28 c-18 15 -76 67 -128 116
-138 130 -248 209 -392 280 -283 141 -610 207 -1028 208 -303 0 -454 -24 -754
-117 -98 -30 -182 -55 -187 -55 -5 0 -9 18 -9 40 0 22 2 40 4 40 2 0 82 15
178 34 306 61 503 79 803 73 273 -5 411 -20 702 -72 149 -27 505 -113 663
-159 166 -49 85 -12 -155 71 -263 90 -460 138 -780 190 -427 68 -780 55 -1245
-47 -78 -18 -149 -34 -156 -37 -12 -4 -14 23 -14 156 l0 160 33 10 32 9 -32 1
-33 1 0 120 0 120 -130 0 -130 0 0 -158 0 -159 -42 -12 c-24 -7 -74 -26 -112
-42 -37 -16 -72 -29 -76 -29 -5 0 -11 24 -15 53 -33 257 -149 384 -380 417
-79 11 -157 11 -230 0z m252 -223 c41 -22 80 -69 93 -115 6 -20 14 -86 17
-146 l6 -109 -29 -25 c-16 -13 -23 -21 -15 -17 7 4 76 7 152 6 l138 -2 3 63 3
63 110 42 c61 23 113 42 118 43 4 0 7 -69 7 -153 l0 -154 -42 -12 c-131 -39
-477 -171 -413 -157 11 2 114 31 229 65 115 34 213 61 218 61 4 0 8 -26 8 -58
l0 -57 -114 -53 -113 -52 -242 0 -241 0 0 -95 0 -95 81 0 c61 0 79 -3 73 -12
-6 -10 -4 -10 7 -1 7 7 30 13 51 13 l38 0 0 -45 c0 -29 -6 -51 -17 -63 -10
-10 -47 -49 -83 -87 l-65 -69 75 67 c41 37 78 67 83 67 11 0 2 -130 -14 -224
-26 -151 -109 -226 -250 -226 -120 0 -202 58 -236 167 -16 53 -18 109 -18 628
0 568 0 570 23 626 42 105 109 142 248 135 47 -2 93 -10 111 -19z m2078 -487
c86 -10 91 -11 123 -47 48 -54 107 -158 133 -233 15 -46 23 -98 27 -177 6
-139 -13 -231 -71 -346 -55 -111 -179 -236 -287 -290 -146 -72 -311 -95 -464
-62 -225 48 -421 229 -498 460 -19 59 -23 90 -23 200 1 116 4 139 29 210 27
80 77 171 114 211 27 29 250 72 457 88 73 6 356 -3 460 -14z m275 -46 c204
-39 486 -159 629 -267 72 -55 261 -225 261 -236 0 -4 -35 -47 -79 -97 -215
-247 -556 -457 -809 -499 -41 -7 -433 -33 -429 -28 2 1 39 20 82 42 141 71
241 170 315 312 124 238 99 531 -62 747 -36 48 -37 52 -16 48 13 -3 61 -13
108 -22z m-1275 -90 c-84 -140 -118 -358 -80 -517 51 -217 213 -413 410 -497
l70 -29 -116 -1 c-161 0 -444 23 -547 46 -21 4 -22 6 -7 34 43 83 48 131 54
544 l6 399 120 43 c66 23 121 41 123 39 1 -1 -14 -29 -33 -61z m-480 -90 c-6
-3 -55 -33 -110 -69 -54 -36 -100 -65 -102 -65 -2 0 -3 13 -3 29 0 27 6 31
108 73 59 25 109 43 112 40 3 -2 0 -6 -5 -8z m0 -691 c-11 -94 -64 -143 -168
-158 l-47 -6 2 337 3 337 105 63 105 63 3 -292 c2 -161 0 -315 -3 -344z"/>
<path d="M2271 1090 c-104 -38 -164 -93 -212 -194 -99 -209 17 -454 244 -512
166 -43 333 32 418 188 33 60 34 68 34 168 0 99 -2 109 -32 165 -66 127 -178
197 -318 202 -61 3 -93 -2 -134 -17z m244 -37 c71 -24 165 -119 191 -193 29
-84 25 -190 -9 -261 -33 -68 -98 -131 -170 -165 -69 -32 -181 -33 -262 -3 -67
25 -141 94 -175 164 -21 42 -25 65 -25 145 0 112 21 167 93 238 93 94 223 121
357 75z"/>
<path d="M2265 1779 c-142 -10 -365 -36 -415 -49 -34 -9 -33 -9 10 -5 234 22
389 27 708 22 361 -5 528 -17 939 -67 89 -11 170 -19 180 -19 49 3 -278 56
-527 84 -356 41 -632 52 -895 34z"/>
<path d="M1778 1713 c7 -3 16 -2 19 1 4 3 -2 6 -13 5 -11 0 -14 -3 -6 -6z"/>
</g>
</svg>
